<?xml version="1.0" encoding="UTF-8"?>
<!DOCTYPE svg PUBLIC "-//W3C//DTD SVG 1.1//EN" "http://www.w3.org/Graphics/SVG/1.1/DTD/svg11.dtd">
<!-- Creator: CorelDRAW 2020 (64-Bit) -->
<svg xmlns="http://www.w3.org/2000/svg" xml:space="preserve" width="50px" height="50px" version="1.1" style="shape-rendering:geometricPrecision; text-rendering:geometricPrecision; image-rendering:optimizeQuality; fill-rule:evenodd; clip-rule:evenodd"
viewBox="0 0 10.64 10.64"
 xmlns:xlink="http://www.w3.org/1999/xlink"
 xmlns:xodm="http://www.corel.com/coreldraw/odm/2003">
 <defs>
  <style type="text/css">
   <![CDATA[
    .fil0 {fill:#6A8FB4}
    .fil1 {fill:white;fill-rule:nonzero}
   ]]>
  </style>
 </defs>
 <g id="Слой_x0020_1">
  <metadata id="CorelCorpID_0Corel-Layer"/>
  <rect class="fil0" width="10.64" height="10.64" rx="0.76" ry="0.76"/>
  <path class="fil1" d="M5.74 8.94l-0.21 -0.47 -1.49 0 -0.21 0.47 -0.8 0 1.63 -3.72 0.25 0 1.63 3.72 -0.8 0zm-0.47 -1.09l-0.49 -1.24 -0.48 1.24 0.97 0zm1.41 1.09l0 -2.74 0.75 0 0 2.74 -0.75 0zm-0.11 -3.74c0,-0.13 0.05,-0.25 0.14,-0.33 0.09,-0.09 0.21,-0.14 0.34,-0.14 0.13,0 0.25,0.05 0.34,0.14 0.09,0.08 0.14,0.2 0.14,0.33 0,0.13 -0.05,0.24 -0.14,0.33 -0.09,0.09 -0.21,0.13 -0.34,0.13 -0.13,0 -0.25,-0.04 -0.34,-0.13 -0.09,-0.09 -0.14,-0.2 -0.14,-0.33z"/>
 </g>
</svg>
