<?xml version="1.0" encoding="UTF-8"?>
<!DOCTYPE svg PUBLIC "-//W3C//DTD SVG 1.1//EN" "http://www.w3.org/Graphics/SVG/1.1/DTD/svg11.dtd">
<!-- Creator: CorelDRAW 2020 (64-Bit) -->
<svg xmlns="http://www.w3.org/2000/svg" xml:space="preserve" width="50px" height="50px" version="1.1" style="shape-rendering:geometricPrecision; text-rendering:geometricPrecision; image-rendering:optimizeQuality; fill-rule:evenodd; clip-rule:evenodd"
viewBox="0 0 5.08 5.08"
 xmlns:xlink="http://www.w3.org/1999/xlink"
 xmlns:xodm="http://www.corel.com/coreldraw/odm/2003">
 <defs>
  <style type="text/css">
   <![CDATA[
    .fil0 {fill:#E27C44}
    .fil1 {fill:white;fill-rule:nonzero}
   ]]>
  </style>
 </defs>
 <g id="Слой_x0020_1">
  <metadata id="CorelCorpID_0Corel-Layer"/>
  <rect class="fil0" width="5.08" height="5.08" rx="0.36" ry="0.36"/>
  <path class="fil1" d="M0.47 3.44c-0.01,-0.25 0.09,-0.47 0.27,-0.65 0.19,-0.18 0.41,-0.27 0.67,-0.27 0.17,0 0.32,0.04 0.46,0.12 0.14,0.08 0.24,0.19 0.32,0.32l-0.27 0.2c-0.13,-0.2 -0.3,-0.3 -0.51,-0.3 -0.16,0 -0.3,0.05 -0.41,0.16 -0.11,0.12 -0.16,0.26 -0.16,0.42 0,0.17 0.05,0.31 0.16,0.42 0.11,0.11 0.25,0.16 0.41,0.16 0.21,0 0.38,-0.1 0.51,-0.3l0.27 0.2c-0.08,0.14 -0.18,0.24 -0.32,0.32 -0.14,0.08 -0.29,0.12 -0.46,0.12 -0.26,0 -0.48,-0.08 -0.67,-0.27 -0.19,-0.18 -0.28,-0.4 -0.27,-0.65zm2.78 -1.13l0.36 0 0 2.02 -0.34 0 0 -0.17c-0.09,0.13 -0.23,0.2 -0.42,0.2 -0.19,0 -0.34,-0.07 -0.46,-0.2 -0.12,-0.13 -0.19,-0.3 -0.19,-0.5 0,-0.2 0.07,-0.36 0.19,-0.49 0.12,-0.14 0.27,-0.2 0.46,-0.2 0.17,0 0.3,0.05 0.4,0.16l0 -0.82zm-0.09 1.62c0.06,-0.06 0.09,-0.15 0.09,-0.27 0,-0.11 -0.03,-0.2 -0.1,-0.27 -0.06,-0.06 -0.14,-0.09 -0.23,-0.09 -0.1,0 -0.18,0.03 -0.25,0.1 -0.07,0.07 -0.1,0.15 -0.1,0.26 0,0.11 0.03,0.2 0.1,0.27 0.06,0.06 0.15,0.1 0.25,0.1 0.09,0 0.17,-0.03 0.24,-0.1zm1.45 -0.93l0 0.32 -0.09 0c-0.11,0 -0.2,0.03 -0.27,0.09 -0.06,0.05 -0.09,0.14 -0.09,0.25l0 0.67 -0.36 0 0 -1.33 0.33 0 0 0.16c0.09,-0.12 0.21,-0.18 0.36,-0.18 0.05,0 0.09,0.01 0.12,0.02z"/>
 </g>
</svg>
