<?xml version="1.0" encoding="UTF-8"?>
<!DOCTYPE svg PUBLIC "-//W3C//DTD SVG 1.1//EN" "http://www.w3.org/Graphics/SVG/1.1/DTD/svg11.dtd">
<!-- Creator: CorelDRAW 2020 (64-Bit) -->
<svg xmlns="http://www.w3.org/2000/svg" xml:space="preserve" width="50px" height="50px" version="1.1" style="shape-rendering:geometricPrecision; text-rendering:geometricPrecision; image-rendering:optimizeQuality; fill-rule:evenodd; clip-rule:evenodd"
viewBox="0 0 4.36 4.36"
 xmlns:xlink="http://www.w3.org/1999/xlink"
 xmlns:xodm="http://www.corel.com/coreldraw/odm/2003">
 <defs>
  <style type="text/css">
   <![CDATA[
    .fil0 {fill:gray}
    .fil1 {fill:white;fill-rule:nonzero}
   ]]>
  </style>
 </defs>
 <g id="Слой_x0020_1">
  <metadata id="CorelCorpID_0Corel-Layer"/>
  <rect class="fil0" width="4.36" height="4.36" rx="0.31" ry="0.31"/>
  <path class="fil1" d="M1.04 0.63l2.39 0 0 3.1 -2.49 0 0 -3.1 0.1 0zm2.17 0.22l-2.06 0 0 2.66 2.06 0 0 -2.66zm-1.9 0.26l1.74 0 0 0.21 -1.74 0 0 -0.21zm0 0.47l1.74 0 0 0.21 -1.74 0 0 -0.21zm0 0.47l1.74 0 0 0.21 -1.74 0 0 -0.21zm0 0.47l1.74 0 0 0.21 -1.74 0 0 -0.21zm0 0.47l1.74 0 0 0.21 -1.74 0 0 -0.21z"/>
 </g>
</svg>
