<?xml version="1.0" encoding="UTF-8"?>
<!DOCTYPE svg PUBLIC "-//W3C//DTD SVG 1.1//EN" "http://www.w3.org/Graphics/SVG/1.1/DTD/svg11.dtd">
<!-- Creator: CorelDRAW 2020 (64-Bit) -->
<svg xmlns="http://www.w3.org/2000/svg" xml:space="preserve" width="50px" height="50px" version="1.1" style="shape-rendering:geometricPrecision; text-rendering:geometricPrecision; image-rendering:optimizeQuality; fill-rule:evenodd; clip-rule:evenodd"
viewBox="0 0 14.95 14.95"
 xmlns:xlink="http://www.w3.org/1999/xlink"
 xmlns:xodm="http://www.corel.com/coreldraw/odm/2003">
 <defs>
  <style type="text/css">
   <![CDATA[
    .fil0 {fill:#AC7D78}
    .fil1 {fill:white;fill-rule:nonzero}
   ]]>
  </style>
 </defs>
 <g id="Слой_x0020_1">
  <metadata id="CorelCorpID_0Corel-Layer"/>
  <rect class="fil0" width="14.95" height="14.95" rx="1.06" ry="1.06"/>
  <path class="fil1" d="M2.73 9.99c-0.01,-0.74 0.25,-1.37 0.79,-1.89 0.55,-0.53 1.2,-0.79 1.96,-0.78 0.92,0 1.64,0.38 2.17,1.12l-0.75 0.61c-0.36,-0.5 -0.84,-0.75 -1.43,-0.75 -0.49,0 -0.89,0.16 -1.19,0.47 -0.31,0.32 -0.46,0.73 -0.46,1.22 0,0.5 0.15,0.92 0.47,1.24 0.32,0.32 0.73,0.48 1.24,0.48 0.6,0 1.05,-0.21 1.36,-0.64l0 -0.42 -1.42 0 0 -0.91 2.47 0 0 1.52c-0.24,0.42 -0.58,0.76 -1.01,1.01 -0.42,0.26 -0.91,0.38 -1.45,0.38 -0.75,0.02 -1.4,-0.24 -1.94,-0.76 -0.55,-0.53 -0.82,-1.16 -0.81,-1.9zm5.61 2.57l0 -3.86 1.05 0 0 3.86 -1.05 0zm-0.15 -5.26c0,-0.19 0.06,-0.34 0.19,-0.47 0.13,-0.12 0.29,-0.18 0.48,-0.18 0.18,0 0.34,0.06 0.48,0.18 0.13,0.13 0.2,0.28 0.2,0.47 0,0.18 -0.07,0.34 -0.2,0.46 -0.14,0.13 -0.3,0.19 -0.48,0.19 -0.19,0 -0.35,-0.06 -0.48,-0.19 -0.13,-0.12 -0.19,-0.28 -0.19,-0.46zm3.03 0.87l0 0.53 0.85 0 0 0.89 -0.85 0 0 2.97 -1.05 0 0 -2.97 -0.55 0 0 -0.89 0.55 0 0 -0.63c0,-0.48 0.13,-0.84 0.39,-1.08 0.26,-0.24 0.62,-0.37 1.1,-0.37 0.19,0 0.38,0.03 0.57,0.09l0 0.88c-0.11,-0.02 -0.22,-0.02 -0.31,-0.02 -0.24,0 -0.42,0.04 -0.53,0.14 -0.12,0.09 -0.17,0.24 -0.17,0.46z"/>
 </g>
</svg>
