<?xml version="1.0" encoding="UTF-8"?>
<!DOCTYPE svg PUBLIC "-//W3C//DTD SVG 1.1//EN" "http://www.w3.org/Graphics/SVG/1.1/DTD/svg11.dtd">
<!-- Creator: CorelDRAW 2020 (64-Bit) -->
<svg xmlns="http://www.w3.org/2000/svg" xml:space="preserve" width="50px" height="50px" version="1.1" style="shape-rendering:geometricPrecision; text-rendering:geometricPrecision; image-rendering:optimizeQuality; fill-rule:evenodd; clip-rule:evenodd"
viewBox="0 0 5.8 5.8"
 xmlns:xlink="http://www.w3.org/1999/xlink"
 xmlns:xodm="http://www.corel.com/coreldraw/odm/2003">
 <defs>
  <style type="text/css">
   <![CDATA[
    .fil0 {fill:#D7AA5D}
    .fil1 {fill:white;fill-rule:nonzero}
   ]]>
  </style>
 </defs>
 <g id="Слой_x0020_1">
  <metadata id="CorelCorpID_0Corel-Layer"/>
  <rect class="fil0" width="5.8" height="5.8" rx="0.41" ry="0.41"/>
  <path class="fil1" d="M0.71 4.74l0 -0.35c0.1,0.01 0.17,0.01 0.2,0.01 0.1,0 0.18,-0.02 0.22,-0.05 0.05,-0.04 0.07,-0.1 0.07,-0.19l0 -1.42 0.41 0 0 1.47c0,0.18 -0.05,0.33 -0.16,0.42 -0.1,0.1 -0.25,0.14 -0.45,0.14 -0.09,0 -0.19,-0.01 -0.29,-0.03zm2.52 -1.31c0.14,0.15 0.21,0.33 0.21,0.56 0,0.22 -0.07,0.41 -0.21,0.56 -0.14,0.15 -0.31,0.22 -0.52,0.22 -0.19,0 -0.34,-0.06 -0.45,-0.18l0 0.69 -0.4 0 0 -2.04 0.37 0 0 0.19c0.1,-0.15 0.26,-0.22 0.48,-0.22 0.21,0 0.38,0.07 0.52,0.22zm-0.21 0.56c0,-0.12 -0.03,-0.22 -0.11,-0.3 -0.07,-0.08 -0.16,-0.11 -0.27,-0.11 -0.11,0 -0.2,0.03 -0.28,0.11 -0.07,0.07 -0.1,0.17 -0.1,0.3 0,0.13 0.03,0.23 0.1,0.3 0.08,0.08 0.17,0.11 0.28,0.11 0.11,0 0.2,-0.04 0.27,-0.11 0.08,-0.08 0.11,-0.18 0.11,-0.3zm1.69 -0.75l0.38 0 0 1.33c0,0.24 -0.07,0.43 -0.21,0.56 -0.14,0.12 -0.33,0.19 -0.57,0.19 -0.28,0 -0.52,-0.09 -0.73,-0.28l0.21 -0.28c0.18,0.13 0.34,0.19 0.49,0.19 0.12,0 0.22,-0.03 0.29,-0.09 0.07,-0.06 0.11,-0.15 0.11,-0.26l0 -0.09c-0.11,0.12 -0.26,0.18 -0.46,0.18 -0.2,0 -0.38,-0.07 -0.51,-0.21 -0.14,-0.14 -0.2,-0.31 -0.2,-0.53 0,-0.22 0.06,-0.4 0.2,-0.54 0.13,-0.13 0.31,-0.2 0.51,-0.2 0.22,0 0.38,0.07 0.49,0.22l0 -0.19zm-0.02 0.7c0,-0.12 -0.04,-0.22 -0.11,-0.28 -0.07,-0.07 -0.16,-0.1 -0.27,-0.1 -0.11,0 -0.21,0.03 -0.28,0.1 -0.07,0.07 -0.11,0.17 -0.11,0.29 0,0.11 0.04,0.21 0.11,0.29 0.08,0.07 0.17,0.11 0.28,0.11 0.11,0 0.2,-0.04 0.27,-0.11 0.07,-0.07 0.11,-0.17 0.11,-0.3z"/>
 </g>
</svg>
