<?xml version="1.0" encoding="UTF-8"?>
<!DOCTYPE svg PUBLIC "-//W3C//DTD SVG 1.1//EN" "http://www.w3.org/Graphics/SVG/1.1/DTD/svg11.dtd">
<!-- Creator: CorelDRAW 2020 (64-Bit) -->
<svg xmlns="http://www.w3.org/2000/svg" xml:space="preserve" width="50px" height="50px" version="1.1" style="shape-rendering:geometricPrecision; text-rendering:geometricPrecision; image-rendering:optimizeQuality; fill-rule:evenodd; clip-rule:evenodd"
viewBox="0 0 8.24 8.24"
 xmlns:xlink="http://www.w3.org/1999/xlink"
 xmlns:xodm="http://www.corel.com/coreldraw/odm/2003">
 <defs>
  <style type="text/css">
   <![CDATA[
    .fil0 {fill:#83BCCA}
    .fil1 {fill:white;fill-rule:nonzero}
   ]]>
  </style>
 </defs>
 <g id="Слой_x0020_1">
  <metadata id="CorelCorpID_0Corel-Layer"/>
  <rect class="fil0" width="8.24" height="8.24" rx="0.59" ry="0.59"/>
  <path class="fil1" d="M0.78 6.79l0 -2.83 1.07 0c0.3,0 0.54,0.08 0.73,0.25 0.2,0.17 0.29,0.39 0.29,0.66 0,0.27 -0.09,0.49 -0.29,0.66 -0.19,0.18 -0.43,0.26 -0.73,0.26l-0.49 0 0 1 -0.58 0zm0.58 -1.5l0.49 0c0.13,0 0.24,-0.04 0.32,-0.12 0.07,-0.07 0.11,-0.17 0.11,-0.3 0,-0.12 -0.04,-0.21 -0.12,-0.29 -0.08,-0.07 -0.18,-0.11 -0.31,-0.11l-0.49 0 0 0.82zm3.65 0.18l0 1.32 -0.58 0 0 -1.24c0,-0.12 -0.03,-0.22 -0.11,-0.3 -0.07,-0.07 -0.17,-0.11 -0.28,-0.11 -0.12,0 -0.22,0.04 -0.29,0.11 -0.08,0.08 -0.12,0.18 -0.12,0.3l0 1.24 -0.58 0 0 -2.12 0.54 0 0 0.19c0.16,-0.16 0.36,-0.24 0.62,-0.24 0.25,0 0.44,0.08 0.58,0.23 0.15,0.16 0.22,0.36 0.22,0.62zm1.91 -0.8l0.54 0 0 1.89c0,0.34 -0.1,0.6 -0.3,0.78 -0.2,0.19 -0.46,0.28 -0.8,0.28 -0.4,0 -0.75,-0.13 -1.05,-0.4l0.31 -0.4c0.24,0.18 0.48,0.27 0.69,0.27 0.17,0 0.31,-0.04 0.41,-0.13 0.11,-0.08 0.16,-0.21 0.16,-0.37l0 -0.11c-0.16,0.16 -0.37,0.25 -0.65,0.25 -0.3,0 -0.54,-0.1 -0.73,-0.3 -0.19,-0.2 -0.29,-0.45 -0.29,-0.76 0,-0.31 0.1,-0.56 0.29,-0.76 0.19,-0.19 0.43,-0.29 0.73,-0.29 0.31,0 0.54,0.1 0.69,0.31l0 -0.26zm-0.03 0.99c0,-0.17 -0.06,-0.31 -0.16,-0.4 -0.1,-0.1 -0.23,-0.15 -0.38,-0.15 -0.16,0 -0.29,0.05 -0.4,0.15 -0.1,0.1 -0.15,0.24 -0.15,0.41 0,0.17 0.05,0.3 0.16,0.41 0.1,0.11 0.23,0.16 0.39,0.16 0.15,0 0.28,-0.05 0.38,-0.16 0.1,-0.1 0.16,-0.24 0.16,-0.42z"/>
 </g>
</svg>
