<?xml version="1.0" encoding="UTF-8"?>
<!DOCTYPE svg PUBLIC "-//W3C//DTD SVG 1.1//EN" "http://www.w3.org/Graphics/SVG/1.1/DTD/svg11.dtd">
<!-- Creator: CorelDRAW 2020 (64-Bit) -->
<svg xmlns="http://www.w3.org/2000/svg" xml:space="preserve" width="50px" height="50px" version="1.1" style="shape-rendering:geometricPrecision; text-rendering:geometricPrecision; image-rendering:optimizeQuality; fill-rule:evenodd; clip-rule:evenodd"
viewBox="0 0 6.79 6.79"
 xmlns:xlink="http://www.w3.org/1999/xlink"
 xmlns:xodm="http://www.corel.com/coreldraw/odm/2003">
 <defs>
  <style type="text/css">
   <![CDATA[
    .fil0 {fill:#6A8FB4}
    .fil1 {fill:white;fill-rule:nonzero}
   ]]>
  </style>
 </defs>
 <g id="Слой_x0020_1">
  <metadata id="CorelCorpID_0Corel-Layer"/>
  <rect class="fil0" width="6.79" height="6.79" rx="0.48" ry="0.48"/>
  <path class="fil1" d="M0.71 5.23l0.33 -0.25c0.17,0.23 0.36,0.34 0.57,0.34 0.11,0 0.19,-0.02 0.25,-0.07 0.06,-0.04 0.09,-0.11 0.09,-0.19 0,-0.06 -0.02,-0.11 -0.06,-0.15 -0.04,-0.04 -0.12,-0.08 -0.24,-0.14l-0.25 -0.11c-0.38,-0.17 -0.57,-0.39 -0.57,-0.67 0,-0.2 0.08,-0.36 0.22,-0.48 0.15,-0.12 0.33,-0.18 0.56,-0.18 0.17,0 0.32,0.04 0.46,0.11 0.13,0.08 0.23,0.19 0.31,0.33l-0.33 0.25c-0.12,-0.18 -0.27,-0.27 -0.44,-0.27 -0.09,0 -0.16,0.02 -0.21,0.06 -0.06,0.04 -0.08,0.1 -0.08,0.17 0,0.06 0.02,0.1 0.06,0.14 0.03,0.04 0.11,0.08 0.21,0.13l0.26 0.11c0.21,0.09 0.35,0.19 0.44,0.29 0.1,0.11 0.14,0.24 0.14,0.4 0,0.21 -0.08,0.37 -0.23,0.5 -0.15,0.13 -0.35,0.2 -0.59,0.2 -0.19,0 -0.37,-0.05 -0.52,-0.14 -0.16,-0.09 -0.29,-0.22 -0.38,-0.38zm3.03 -1.28l0.51 0 -0.87 1.8 -0.16 0 -0.87 -1.8 0.51 0 0.44 0.99 0.44 -0.99zm1.83 0l0.44 0 0 1.56c0,0.28 -0.08,0.5 -0.24,0.65 -0.16,0.15 -0.39,0.22 -0.66,0.22 -0.33,0 -0.62,-0.11 -0.86,-0.32l0.25 -0.34c0.2,0.16 0.39,0.23 0.57,0.23 0.14,0 0.26,-0.03 0.34,-0.11 0.08,-0.07 0.12,-0.17 0.12,-0.3l0 -0.1c-0.12,0.14 -0.3,0.21 -0.53,0.21 -0.24,0 -0.44,-0.08 -0.6,-0.24 -0.16,-0.17 -0.24,-0.38 -0.24,-0.63 0,-0.26 0.08,-0.47 0.24,-0.63 0.16,-0.16 0.36,-0.24 0.6,-0.24 0.26,0 0.45,0.09 0.57,0.26l0 -0.22zm-0.03 0.82c0,-0.14 -0.04,-0.25 -0.12,-0.33 -0.09,-0.08 -0.19,-0.12 -0.32,-0.12 -0.13,0 -0.24,0.04 -0.33,0.12 -0.08,0.09 -0.12,0.2 -0.12,0.34 0,0.14 0.04,0.25 0.13,0.34 0.08,0.08 0.19,0.13 0.32,0.13 0.12,0 0.23,-0.05 0.31,-0.13 0.09,-0.09 0.13,-0.2 0.13,-0.35z"/>
 </g>
</svg>
