<?xml version="1.0" encoding="UTF-8"?>
<!DOCTYPE svg PUBLIC "-//W3C//DTD SVG 1.1//EN" "http://www.w3.org/Graphics/SVG/1.1/DTD/svg11.dtd">
<!-- Creator: CorelDRAW 2020 (64-Bit) -->
<svg xmlns="http://www.w3.org/2000/svg" xml:space="preserve" width="50px" height="50px" version="1.1" style="shape-rendering:geometricPrecision; text-rendering:geometricPrecision; image-rendering:optimizeQuality; fill-rule:evenodd; clip-rule:evenodd"
viewBox="0 0 77.19 77.19"
 xmlns:xlink="http://www.w3.org/1999/xlink"
 xmlns:xodm="http://www.corel.com/coreldraw/odm/2003">
 <defs>
  <style type="text/css">
   <![CDATA[
    .fil0 {fill:#1A4D7C}
    .fil1 {fill:white;fill-rule:nonzero}
   ]]>
  </style>
 </defs>
 <g id="Слой_x0020_1">
  <metadata id="CorelCorpID_0Corel-Layer"/>
  <rect class="fil0" width="77.19" height="77.19" rx="5.49" ry="5.49"/>
  <path class="fil1" d="M20.55 59.95l13.36 0 0 4.91 -21.73 0 0 -1.45 13.32 -20.2 -11.59 0 0 -4.9 19.96 0 0 1.44 -13.32 20.2zm14.89 4.91l0 -19.92 5.43 0 0 19.92 -5.43 0zm-0.77 -27.16c0,-0.96 0.34,-1.77 1.01,-2.41 0.67,-0.65 1.49,-0.97 2.45,-0.97 0.97,0 1.79,0.32 2.48,0.97 0.68,0.64 1.02,1.45 1.02,2.41 0,0.94 -0.34,1.73 -1.02,2.38 -0.69,0.64 -1.51,0.96 -2.48,0.96 -0.96,0 -1.78,-0.32 -2.45,-0.96 -0.67,-0.65 -1.01,-1.44 -1.01,-2.38zm27.59 9.76c1.84,1.97 2.75,4.44 2.75,7.42 0,2.98 -0.91,5.47 -2.75,7.47 -1.84,1.99 -4.14,2.99 -6.9,2.99 -2.5,0 -4.48,-0.8 -5.96,-2.41l0 9.17 -5.43 0 0 -27.16 4.99 0 0 2.5c1.37,-1.96 3.5,-2.94 6.4,-2.94 2.76,0 5.06,0.99 6.9,2.96zm-2.76 7.46c0,-1.63 -0.48,-2.96 -1.45,-3.98 -0.96,-1.02 -2.2,-1.53 -3.7,-1.53 -1.45,0 -2.65,0.48 -3.6,1.45 -0.95,0.96 -1.43,2.31 -1.43,4.02 0,1.72 0.48,3.07 1.43,4.05 0.95,0.98 2.15,1.46 3.6,1.46 1.48,0 2.7,-0.51 3.68,-1.52 0.98,-1.02 1.47,-2.34 1.47,-3.95z"/>
 </g>
</svg>
