<?xml version="1.0" encoding="UTF-8"?>
<!DOCTYPE svg PUBLIC "-//W3C//DTD SVG 1.1//EN" "http://www.w3.org/Graphics/SVG/1.1/DTD/svg11.dtd">
<!-- Creator: CorelDRAW 2020 (64-Bit) -->
<svg xmlns="http://www.w3.org/2000/svg" xml:space="preserve" width="152.687mm" height="28.9287mm" version="1.1" style="shape-rendering:geometricPrecision; text-rendering:geometricPrecision; image-rendering:optimizeQuality; fill-rule:evenodd; clip-rule:evenodd"
viewBox="0 0 8153.1 1544.72"
 xmlns:xlink="http://www.w3.org/1999/xlink"
 xmlns:xodm="http://www.corel.com/coreldraw/odm/2003">
 <defs>
  <style type="text/css">
   <![CDATA[
    .fil0 {fill:#FEFEFE;fill-rule:nonzero}
   ]]>
  </style>
 </defs>
 <g id="Слой_x0020_1">
  <metadata id="CorelCorpID_0Corel-Layer"/>
  <g id="_1672816036864">
   <path class="fil0" d="M1950.77 555.96l0 432.81c52.2,1.17 81.84,2.35 88.97,2.35 179.03,0 281.02,-86.56 281.02,-225.29 0,-131.62 -94.88,-212.22 -278.64,-212.22 -20.18,0 -49.82,1.17 -91.34,2.35zm-100.77 527.68l0 -622.52 11.87 0c14.2,0 43.84,0 87.72,-1.21 43.88,-1.17 75.89,-1.17 93.69,-1.17 130.41,0 226.45,28.46 289.28,85.37 62.89,55.75 94.87,130.41 94.87,221.72 0,94.88 -34.37,171.92 -101.95,231.26 -67.59,59.26 -163.65,88.9 -289.28,88.9 -13.1,0 -40.36,0 -81.89,-1.18 -40.31,-1.17 -71.09,-1.17 -92.45,-1.17l-11.87 0z"/>
   <polygon class="fil0" points="2644.09,1083.64 2644.09,461.12 2746.05,461.12 2991.52,758.7 3226.29,461.12 3322.34,461.12 3322.34,1083.64 3221.57,1083.64 3221.57,614.08 2991.52,898.62 2977.3,898.62 2744.86,617.59 2744.86,1083.64 "/>
   <polygon class="fil0" points="3876.22,555.96 3876.22,461.12 4440.64,461.12 4440.64,555.96 4208.25,555.96 4208.25,1083.64 4107.44,1083.64 4107.44,555.96 "/>
   <polygon class="fil0" points="4630.92,1083.64 4630.92,461.12 5034.06,461.12 5034.06,555.96 4731.7,555.96 4731.7,721.97 5004.44,721.97 5004.44,816.84 4731.7,816.84 4731.7,988.77 5043.57,988.77 5043.57,1083.64 "/>
   <polygon class="fil0" points="5833.36,461.12 5597.4,767.05 5842.82,1083.64 5718.35,1083.64 5530.99,844.14 5346.01,1083.64 5220.33,1083.64 5465.75,767.05 5231,461.12 5356.68,461.12 5533.37,691.16 5708.85,461.12 "/>
   <polygon class="fil0" points="5988.17,555.96 5988.17,461.12 6552.61,461.12 6552.61,555.96 6320.2,555.96 6320.2,1083.64 6219.38,1083.64 6219.38,555.96 "/>
   <polygon class="fil0" points="6750.82,1083.64 6750.82,461.12 6851.61,461.12 6851.61,1083.64 "/>
   <polygon class="fil0" points="7121.19,1083.64 7121.19,461.12 7221.97,461.12 7221.97,982.82 7544.47,982.82 7544.47,1083.64 "/>
   <polygon class="fil0" points="7740.46,1083.64 7740.46,461.12 8143.6,461.12 8143.6,555.96 7841.23,555.96 7841.23,721.97 8113.97,721.97 8113.97,816.84 7841.23,816.84 7841.23,988.77 8153.1,988.77 8153.1,1083.64 "/>
  </g>
  <path class="fil0" d="M772.81 0c-426.1,0 -772.81,346.7 -772.81,772.85 0,414.26 327.7,753.35 737.45,771.87l0 -411.96c-103.2,8.1 -200.81,51.9 -275.18,123.52l-8.18 7.89 -49.94 -49.99 8.46 -8.19c21.67,-20.95 45.31,-40.12 70.26,-57.04 -201.78,-36.47 -347.45,-210.34 -347.45,-416.28 0,-184.55 118.07,-346.37 293.88,-402.94 87,-99.22 212.16,-156.11 343.5,-156.11 131.36,0 256.53,56.89 343.52,156.11 175.81,56.56 293.85,218.39 293.85,402.94 0,205.94 -145.64,379.81 -347.4,416.28 24.97,16.94 48.57,36.11 70.24,57.04l8.47 8.19 -49.95 49.99 -8.18 -7.89c-74.36,-71.62 -172.01,-115.42 -275.2,-123.52l0 411.96c409.78,-18.51 737.47,-357.61 737.47,-771.87 0,-426.16 -346.7,-772.85 -772.83,-772.85z"/>
  <path class="fil0" d="M563.82 732.68c0,-122.18 52.9,-238.07 145.23,-318.71 -74.24,-35.29 -159.61,-43.23 -239.4,-22.42 -54.42,68.87 -83.18,151.5 -83.18,239.06 0,169.18 111.61,319.54 272.67,369.2 -61.51,-75.44 -95.33,-169.88 -95.33,-267.12z"/>
  <path class="fil0" d="M206.1 732.68c0,194.35 158.15,352.5 352.51,352.5 32.48,0 64.62,-4.46 95.75,-13.24 -199.87,-53.57 -338.54,-233.48 -338.54,-441.35 0,-64.68 13.31,-127.1 39.51,-185.75 -93.63,66.3 -149.22,173.05 -149.22,287.83z"/>
  <path class="fil0" d="M558.49 309.47l0.12 0c75.36,0 149.37,20.18 214.2,58.41 64.82,-38.22 138.82,-58.41 214.19,-58.41l0.15 0c-63.69,-42.66 -137.56,-65.17 -214.35,-65.17 -76.77,0 -150.64,22.51 -214.32,65.17z"/>
  <path class="fil0" d="M836.58 413.96c92.34,80.61 145.22,196.51 145.22,318.71 0,97.24 -33.81,191.7 -95.33,267.12 161.04,-49.66 272.7,-200.02 272.7,-369.2 0,-87.56 -28.78,-170.18 -83.2,-239.06 -79.83,-20.83 -165.19,-12.84 -239.38,22.42z"/>
  <path class="fil0" d="M772.81 452.91c-87.94,67.45 -138.32,169.29 -138.32,279.77 0,110.45 50.38,212.27 138.32,279.74 87.96,-67.48 138.34,-169.29 138.34,-279.74 0,-110.46 -50.38,-212.32 -138.34,-279.77z"/>
  <path class="fil0" d="M891.28 1071.95c31.1,8.78 63.25,13.24 95.72,13.24 194.39,0 352.52,-158.16 352.52,-352.5 0,-114.75 -55.58,-221.5 -149.2,-287.83 26.2,58.66 39.49,121.14 39.49,185.75 0,207.87 -138.63,387.78 -338.53,441.35z"/>
 </g>
</svg>
