<?xml version="1.0" encoding="UTF-8"?>
<!DOCTYPE svg PUBLIC "-//W3C//DTD SVG 1.1//EN" "http://www.w3.org/Graphics/SVG/1.1/DTD/svg11.dtd">
<!-- Creator: CorelDRAW 2020 (64-Bit) -->
<svg xmlns="http://www.w3.org/2000/svg" xml:space="preserve" width="66.7275mm" height="120.777mm" version="1.1" style="shape-rendering:geometricPrecision; text-rendering:geometricPrecision; image-rendering:optimizeQuality; fill-rule:evenodd; clip-rule:evenodd"
viewBox="0 0 2928.13 5299.93"
 xmlns:xlink="http://www.w3.org/1999/xlink"
 xmlns:xodm="http://www.corel.com/coreldraw/odm/2003">
 <defs>
  <style type="text/css">
   <![CDATA[
    .fil0 {fill:#0F9AA0;fill-rule:nonzero}
   ]]>
  </style>
 </defs>
 <g id="Слой_x0020_1">
  <metadata id="CorelCorpID_0Corel-Layer"/>
  <g id="DM_x0020_ТЕКСТИЛЬ_green_small_v.eps">
   <polygon class="fil0" points="59.56,5031.62 59.56,4984.32 340.92,4984.32 340.92,5031.62 225.07,5031.62 225.07,5294.6 174.84,5294.6 174.84,5031.62 "/>
   <polygon class="fil0" points="440.81,5294.6 440.81,4984.32 641.74,4984.32 641.74,5031.62 491.06,5031.62 491.06,5114.32 626.97,5114.32 626.97,5161.57 491.06,5161.57 491.06,5247.35 646.5,5247.35 646.5,5294.6 "/>
   <path class="fil0" d="M1026.48 4984.32l-145.4 144.79 153.07 165.49 -68.52 0 -146.03 -161.93 141.24 -148.35 65.63 0zm-261.23 310.28l0 -310.28 50.24 0 0 310.28 -50.24 0z"/>
   <path class="fil0" d="M1370.17 5265.07c-21.83,21.27 -64.95,34.86 -108.11,34.86 -51.45,0 -93.43,-14.75 -124.73,-43.8 -31.32,-28.94 -47.33,-67.92 -47.33,-116.35 0,-45.54 14.82,-83.37 44.93,-113.53 30.18,-30.71 71.53,-46.13 124.73,-46.13 43.14,0 77.42,10.04 104.02,30.8l-23.09 37.8c-24.16,-14.2 -50.8,-21.23 -80.94,-21.23 -34.9,0 -62.64,10.01 -84.51,30.72 -21.25,20.66 -31.95,47.86 -31.95,81.58 0,33.66 11.25,61.48 33.7,82.18 22.49,20.65 52.65,30.68 89.87,30.68 32.48,0 60.26,-8.24 83.95,-25.45l19.45 37.88z"/>
   <polygon class="fil0" points="1450.41,5031.62 1450.41,4984.32 1731.73,4984.32 1731.73,5031.62 1615.9,5031.62 1615.9,5294.6 1565.65,5294.6 1565.65,5031.62 "/>
   <polygon class="fil0" points="1875.99,5294.6 1831.65,5294.6 1831.65,4984.32 1881.92,4984.32 1881.92,5214.78 2075.74,4984.32 2120.08,4984.32 2120.08,5294.6 2069.88,5294.6 2069.88,5064.14 "/>
   <path class="fil0" d="M2467.62 5294.6l0 -262.98 -113.43 0 -5.93 58.44c-8.88,89.88 -24.22,147.18 -47.26,175.01 -21.88,27.74 -44.33,34.27 -77.43,29.53l1.15 -48.46c12.39,1.74 20.68,0 34.28,-14.17 6.49,-7.7 12.42,-18.33 17.75,-31.94 10.04,-27.79 21.27,-81 26.57,-153.65l4.75 -62.06 209.86 0 0 310.28 -50.32 0z"/>
   <path class="fil0" d="M2704.74 5139.78l0 107.57c15.96,0.53 28.35,1.19 38.41,1.19 53.8,0 80.96,-18.94 80.96,-57.36 0,-35.5 -26.59,-53.22 -79.81,-53.22 -11.22,0 -24.23,0.6 -39.56,1.81zm0 -155.46l0 108.12c16.53,-1.15 31.3,-1.71 43.71,-1.71 85.71,0 128.85,37.21 128.85,99.27 0,66.13 -51.99,105.78 -140.06,105.78 -11.24,0 -25.97,0 -45.5,-0.52 -18.94,-0.66 -31.32,-0.66 -37.26,-0.66l0 -310.28 50.27 0z"/>
   <path class="fil0" d="M1397.12 2926.42l0 -780.55c-195.51,15.42 -380.45,98.37 -521.31,234.02l-15.53 15.01 -94.61 -94.74 16.03 -15.49c41.08,-39.71 85.82,-75.97 133.14,-108.05 -382.31,-69.18 -658.25,-398.5 -658.25,-788.66 0,-349.64 223.68,-656.2 556.7,-763.28 164.86,-188.01 401.95,-295.82 650.78,-295.82 248.84,0 485.96,107.81 650.81,295.82 333.05,107.08 556.66,413.64 556.66,763.28 0,390.16 -275.92,719.48 -658.23,788.66 47.4,32.1 92.13,68.41 133.14,108.05l16.06 15.49 -94.61 94.74 -15.53 -15.01c-140.92,-135.65 -325.81,-218.6 -521.3,-234.02l0 780.55c776.25,-35.17 1397.07,-677.52 1397.07,-1462.35 0,-807.24 -656.79,-1464.06 -1464.07,-1464.06 -807.29,0 -1464.06,656.82 -1464.06,1464.06 0,784.83 620.82,1427.19 1397.12,1462.35z"/>
   <path class="fil0" d="M1068.17 1387.97c0,-231.49 100.19,-450.98 275.11,-603.83 -140.61,-66.79 -302.36,-81.79 -453.51,-42.43 -103.07,130.47 -157.58,287.05 -157.58,452.94 0,320.46 211.42,605.29 516.56,699.36 -116.57,-142.9 -180.58,-321.82 -180.58,-506.04z"/>
   <path class="fil0" d="M390.5 1387.97c0,368.24 299.6,667.8 667.84,667.8 61.48,0 122.35,-8.46 181.33,-25.06 -378.71,-101.51 -641.37,-442.3 -641.37,-836.07 0,-122.54 25.21,-240.83 74.88,-351.89 -177.39,125.56 -282.68,327.8 -282.68,545.22z"/>
   <path class="fil0" d="M1058.02 586.27l0.32 0c142.7,0 282.92,38.26 405.72,110.61 122.82,-72.35 263.03,-110.61 405.76,-110.61l0.3 0c-120.65,-80.88 -260.6,-123.5 -406.07,-123.5 -145.42,0 -285.4,42.62 -406.04,123.5z"/>
   <path class="fil0" d="M1584.86 784.14c174.94,152.77 275.19,372.34 275.19,603.83 0,184.22 -64.09,363.19 -180.7,506.04 305.15,-94.08 516.64,-378.91 516.64,-699.36 0,-165.88 -54.51,-322.47 -157.62,-452.94 -151.16,-39.41 -312.93,-24.37 -453.51,42.43z"/>
   <path class="fil0" d="M1464.06 857.98c-166.56,127.78 -262.06,320.68 -262.06,529.99 0,209.24 95.5,402.14 262.06,529.95 166.58,-127.81 262.08,-320.72 262.08,-529.95 0,-209.27 -95.5,-402.2 -262.08,-529.99z"/>
   <path class="fil0" d="M1688.48 2030.71c58.92,16.6 119.82,25.06 181.35,25.06 368.24,0 667.83,-299.57 667.83,-667.8 0,-217.39 -105.24,-419.61 -282.65,-545.22 49.66,111.14 74.83,229.43 74.83,351.89 0,393.77 -262.64,734.56 -641.36,836.07z"/>
   <path class="fil0" d="M231.2 3492.29l0 1020.59c138.25,2.43 210.95,4.84 218.22,4.84 206.05,0 363.65,-48.42 477.62,-145.41 113.89,-99.43 169.63,-227.91 169.63,-385.5 0,-300.59 -213.3,-499.37 -639.98,-499.37 -50.88,0 -126.02,2.41 -225.5,4.86zm-133.25 1146.63l0 -1272.69 21.79 0c31.54,0 84.83,0 162.42,-2.44 77.57,-2.41 138.18,-2.41 179.43,-2.41 261.8,0 455.73,58.13 584.2,174.51 128.48,113.94 191.51,264.26 191.51,450.91 0,191.54 -67.87,349.13 -206.04,472.78 -138.21,123.59 -332.14,184.2 -586.65,184.2 -31.58,0 -82.47,0 -157.63,-2.38 -75.1,-2.49 -130.87,-2.49 -172.12,-2.49l-16.91 0z"/>
   <polygon class="fil0" points="1506.57,4638.92 1506.57,3366.23 1642.31,3366.23 2182.98,4035.33 2701.77,3366.23 2830.24,3366.23 2830.24,4638.92 2696.9,4638.92 2696.9,3567.44 2182.98,4221.98 2163.54,4221.98 1639.89,3574.7 1639.89,4638.92 "/>
  </g>
 </g>
</svg>
